<svg version="1.1" id="Layer_1" xmlns="http://www.w3.org/2000/svg" xmlns:xlink="http://www.w3.org/1999/xlink" x="0px" y="0px" viewBox="0 0 512 512" style="enable-background:new 0 0 512 512;" xml:space="preserve"><g><path style="fill:#B3404A;" d="M497.577,428.051h-83.695c-7.964,0-14.423-6.459-14.423-14.423s6.459-14.423,14.423-14.423h69.272
V112.795H193.505c-7.964,0-14.423-6.459-14.423-14.423s6.459-14.423,14.423-14.423h304.072c7.964,0,14.423,6.459,14.423,14.423
v315.257C512,421.594,505.543,428.051,497.577,428.051z"/><path style="fill:#B3404A;" d="M320.362,428.051H14.423C6.459,428.051,0,421.593,0,413.628V98.372
c0-7.964,6.459-14.423,14.423-14.423h91.573c7.964,0,14.423,6.459,14.423,14.423s-6.459,14.423-14.423,14.423h-77.15v286.411
h291.517c7.964,0,14.423,6.459,14.423,14.423S328.328,428.051,320.362,428.051z"/></g><path style="fill:#F4B2B0;" d="M426.394,195.161c-17.52,0-31.772-14.253-31.772-31.772c0-7.976-6.466-14.442-14.442-14.442H131.82
c-7.976,0-14.442,6.466-14.442,14.442c0,17.52-14.253,31.772-31.772,31.772c-7.976,0-14.442,6.466-14.442,14.442v92.796
c0,7.976,6.466,14.442,14.442,14.442c17.52,0,31.772,14.253,31.772,31.772c0,7.976,6.466,14.442,14.442,14.442h248.36
c7.976,0,14.442-6.466,14.442-14.442c0-17.52,14.253-31.772,31.772-31.772c7.976,0,14.442-6.466,14.442-14.442v-92.796
C440.836,201.627,434.369,195.161,426.394,195.161z"/><g><path style="fill:#B3404A;" d="M86.52,293.285v-74.568c23.894-5.498,42.738-24.352,48.238-48.246H279.38
c7.964,0,14.423-6.459,14.423-14.423s-6.459-14.423-14.423-14.423H121.975c-7.964,0-14.423,6.459-14.423,14.423
c0,19.55-15.904,35.454-35.454,35.454c-7.964,0-14.423,6.459-14.423,14.423v100.151c0,7.964,6.459,14.423,14.423,14.423
c19.55,0,35.454,15.904,35.454,35.454c0,7.964,6.459,14.423,14.423,14.423s14.423-6.459,14.423-14.423
C136.398,325.455,115.053,299.849,86.52,293.285z"/><path style="fill:#B3404A;" d="M439.903,191.501c-19.55,0-35.454-15.904-35.454-35.454c0-7.964-6.459-14.423-14.423-14.423
s-14.423,6.459-14.423,14.423c0,30.499,21.345,56.104,49.877,62.669v74.568c-23.894,5.498-42.738,24.352-48.238,48.246H227.945
c-7.964,0-14.423,6.459-14.423,14.423s6.459,14.423,14.423,14.423h162.081c7.964,0,14.423-6.459,14.423-14.423
c0-19.55,15.904-35.454,35.454-35.454c7.964,0,14.423-6.459,14.423-14.423V205.924
C454.326,197.959,447.867,191.501,439.903,191.501z"/><path style="fill:#B3404A;" d="M264.68,247.848V217.01c12.309,2.159,14.16,8.983,14.439,12.994c0.071,1.028,0.92,1.823,1.95,1.823
h13.444c1.129,0,2.018-0.955,1.96-2.083c-0.873-16.914-12.466-27.797-31.792-30.241v-10.37c0-1.082-0.877-1.957-1.957-1.957
h-13.444c-1.082,0-1.957,0.877-1.957,1.957v10.37c-20.11,2.543-31.846,14.221-31.846,32.323s11.736,29.78,31.846,32.323v30.838
c-12.309-2.159-14.16-8.983-14.439-12.994c-0.071-1.028-0.92-1.823-1.95-1.823h-13.444c-1.129,0-2.018,0.955-1.96,2.083
c0.873,16.914,12.466,27.796,31.792,30.241v10.37c0,1.082,0.877,1.957,1.957,1.957h13.444c1.082,0,1.957-0.877,1.957-1.957v-10.37
c20.11-2.543,31.846-14.221,31.846-32.323C296.524,262.069,284.788,250.392,264.68,247.848z M247.322,246.644
c-14.485-2.54-14.488-11.538-14.488-14.817c0-3.277,0.003-12.277,14.488-14.817V246.644z M264.68,294.99v-29.633
c14.485,2.54,14.488,11.54,14.488,14.817C279.166,283.45,279.163,292.45,264.68,294.99z"/></g><g></g><g></g><g></g><g></g><g></g><g></g><g></g><g></g><g></g><g></g><g></g><g></g><g></g><g></g><g></g></svg>