<svg height="20px" width="20px" version="1.1" id="Layer_1" xmlns="http://www.w3.org/2000/svg" xmlns:xlink="http://www.w3.org/1999/xlink" x="0px" y="0px" viewBox="0 0 142.104 142.104" style="enable-background:new 0 0 142.104 142.104;" xml:space="preserve"><g><rect x="57.284" y="41.591" style="fill:#9ED915;" width="27.535" height="25.491"/><rect x="34.814" y="87.849" style="fill:#4E6B0A;" width="72.475" height="31.895"/><circle style="fill:#678C0D;" cx="71.052" cy="54.889" r="8.476"/><circle style="fill:#F9FAD2;" cx="71.052" cy="54.889" r="7.277"/><circle style="fill:#BD1273;" cx="71.052" cy="54.889" r="1.82"/><path style="fill:#BD1273;" d="M71.801,54.926c0,0.414-0.335,0.75-0.749,0.75l0,0c-0.413,0-0.749-0.336-0.749-0.75v-4.73
c0-0.414,0.336-0.749,0.749-0.749l0,0c0.414,0,0.749,0.335,0.749,0.749V54.926z"/><path style="fill:#BD1273;" d="M67.37,55.639c-0.414,0-0.75-0.335-0.75-0.749l0,0c0-0.414,0.336-0.749,0.75-0.749h3.725
c0.414,0,0.749,0.335,0.749,0.749l0,0c0-0.115,0.16,0.749-0.749,0.749H67.37z"/><rect x="48.518" y="71.878" style="fill:#9ED915;" width="45.068" height="47.866"/><rect x="48.518" y="115.652" style="fill:#FF199B;" width="45.068" height="4.091"/><path style="fill:#678C0D;" d="M98.331,69.48c0,1.324-0.931,2.397-2.078,2.397H45.852c-1.148,0-2.078-1.073-2.078-2.397l0,0
c0-1.324,0.931-2.397,2.078-2.397h50.401C97.4,67.083,98.331,68.156,98.331,69.48L98.331,69.48z"/><polygon style="fill:#FF199B;" points="53.187,9.805 71.046,9.805 71.046,13.906 71.046,18.009 53.187,18.009 59.42,13.906 "/><path style="fill:#4E6B0A;" d="M71.977,29.569c0,0.286-0.414,0.518-0.925,0.518l0,0c-0.511,0-0.925-0.232-0.925-0.518V7.586
c0-0.286,0.414-0.518,0.925-0.518l0,0c0.511,0,0.925,0.232,0.925,0.518V29.569z"/><path style="fill:#BD1273;" d="M86.577,34.96c-2.106-6.192-8.258-10.676-15.525-10.676c-7.268,0-13.418,4.484-15.525,10.676H86.577
z"/><path style="fill:#678C0D;" d="M92.632,39.695c0,1.047-0.736,1.896-1.645,1.896h-39.87c-0.908,0-1.645-0.849-1.645-1.896l0,0
c0-1.047,0.736-1.896,1.645-1.896h39.87C91.896,37.799,92.632,38.647,92.632,39.695L92.632,39.695z"/><rect x="53.052" y="34.334" style="fill:#FF199B;" width="36" height="3.464"/><g><rect x="56.313" y="89.272" style="fill:#F9FAD2;" width="29.478" height="7.19"/><rect x="68.893" y="89.272" style="fill:#678C0D;" width="4.317" height="7.19"/><rect x="56.313" y="76.578" style="fill:#F9FAD2;" width="29.478" height="7.189"/><rect x="68.893" y="76.578" style="fill:#678C0D;" width="4.317" height="7.189"/></g><g><g><rect x="9.363" y="80.443" style="fill:#9ED915;" width="29.517" height="39.301"/><g><rect x="9.363" y="115.652" style="fill:#FF199B;" width="29.517" height="4.091"/></g><path style="fill:#678C0D;" d="M42.876,78.626c0,1.003-0.735,1.816-1.644,1.816H7.013c-0.908,0-1.645-0.813-1.645-1.816l0,0
c0-1.003,0.736-1.816,1.645-1.816h34.22C42.141,76.81,42.876,77.623,42.876,78.626L42.876,78.626z"/><polygon style="fill:#BD1273;" points="38.642,76.944 38.642,76.915 24.122,64.501 9.602,76.915 9.602,76.944 "/><polygon style="fill:#FF199B;" points="29.825,76.918 29.825,76.889 24.122,64.501 18.42,76.889 18.42,76.918 "/><g><rect x="15.514" y="84.338" style="fill:#F9FAD2;" width="6.476" height="10.764"/><rect x="26.254" y="84.338" style="fill:#F9FAD2;" width="6.477" height="10.764"/></g></g><g><rect x="15.514" y="99.153" style="fill:#F9FAD2;" width="6.476" height="10.763"/><rect x="26.254" y="99.153" style="fill:#F9FAD2;" width="6.477" height="10.763"/></g></g><g><g><rect x="103.223" y="80.443" style="fill:#9ED915;" width="29.519" height="39.301"/><g><rect x="103.223" y="115.652" style="fill:#FF199B;" width="29.519" height="4.091"/></g><path style="fill:#678C0D;" d="M136.736,78.626c0,1.003-0.736,1.816-1.645,1.816h-34.22c-0.908,0-1.645-0.813-1.645-1.816l0,0
c0-1.003,0.736-1.816,1.645-1.816h34.22C136,76.81,136.736,77.623,136.736,78.626L136.736,78.626z"/><polygon style="fill:#BD1273;" points="132.501,76.944 132.501,76.915 117.981,64.501 103.463,76.915 103.463,76.944 "/><polygon style="fill:#FF199B;" points="123.685,76.918 123.685,76.889 117.981,64.501 112.279,76.889 112.279,76.918 "/><g><rect x="109.374" y="84.338" style="fill:#F9FAD2;" width="6.476" height="10.764"/><rect x="120.114" y="84.338" style="fill:#F9FAD2;" width="6.476" height="10.764"/></g></g><g><rect x="109.374" y="99.153" style="fill:#F9FAD2;" width="6.476" height="10.763"/><rect x="120.114" y="99.153" style="fill:#F9FAD2;" width="6.476" height="10.763"/></g></g><rect x="61.253" y="102.35" style="fill:#BD1273;" width="19.599" height="17.394"/><rect x="69.835" y="102.35" style="fill:#FF199B;" width="2.434" height="17.394"/><g><rect y="119.744" style="fill:#BD1273;" width="142.104" height="10.167"/><g><g><rect x="45.181" y="121.142" style="fill:#678C0D;" width="51.743" height="3.728"/><rect x="45.181" y="119.744" style="fill:#9ED915;" width="51.743" height="1.398"/></g><g><rect x="32.288" y="126.227" style="fill:#678C0D;" width="77.528" height="3.728"/><rect x="32.288" y="124.829" style="fill:#9ED915;" width="77.528" height="1.398"/></g><g><rect x="20.091" y="131.309" style="fill:#678C0D;" width="101.923" height="3.728"/><rect x="20.091" y="129.91" style="fill:#9ED915;" width="101.923" height="1.398"/></g></g></g><path style="opacity:0.2;fill:#FFFFFF;enable-background:new ;" d="M71.046,135.036V24.285
c-7.016,0.002-12.979,4.188-15.276,10.05h-2.718v3.464h-1.935c-0.908,0-1.645,0.849-1.645,1.896s0.736,1.896,1.645,1.896h6.167
v25.491H45.852c-1.148,0-2.078,1.073-2.078,2.397c0,1.324,0.931,2.397,2.078,2.397h2.666v15.971h-9.637v-7.406h2.352
c0.908,0,1.644-0.813,1.644-1.816s-0.735-1.816-1.644-1.816H38.52L24.122,64.501L9.726,76.81H7.013
c-0.908,0-1.645,0.813-1.645,1.816s0.736,1.816,1.645,1.816h2.351v39.301H0v10.167h20.091v5.126L71.046,135.036L71.046,135.036z"/></g><g></g><g></g><g></g><g></g><g></g><g></g><g></g><g></g><g></g><g></g><g></g><g></g><g></g><g></g><g></g></svg>